<svg id="visual" viewBox="0 0 1350 700" width="1350" height="700" xmlns="http://www.w3.org/2000/svg" xmlns:xlink="http://www.w3.org/1999/xlink" version="1.1"><rect x="0" y="0" width="1350" height="700" fill="#062ecc"></rect><path d="M875 700L802 700L802 622L750 622L750 544L974 544L974 467L835 467L835 389L979 389L979 311L893 311L893 233L925 233L925 156L982 156L982 78L738 78L738 0L1350 0L1350 78L1350 78L1350 156L1350 156L1350 233L1350 233L1350 311L1350 311L1350 389L1350 389L1350 467L1350 467L1350 544L1350 544L1350 622L1350 622L1350 700L1350 700Z" fill="#0b427f"></path><path d="M917 700L1022 700L1022 622L1146 622L1146 544L1026 544L1026 467L999 467L999 389L1147 389L1147 311L1079 311L1079 233L1105 233L1105 156L1140 156L1140 78L1076 78L1076 0L1350 0L1350 78L1350 78L1350 156L1350 156L1350 233L1350 233L1350 311L1350 311L1350 389L1350 389L1350 467L1350 467L1350 544L1350 544L1350 622L1350 622L1350 700L1350 700Z" fill="#172342"></path><path d="M1155 700L1150 700L1150 622L1244 622L1244 544L1184 544L1184 467L1256 467L1256 389L1142 389L1142 311L1266 311L1266 233L1162 233L1162 156L1244 156L1244 78L1076 78L1076 0L1350 0L1350 78L1350 78L1350 156L1350 156L1350 233L1350 233L1350 311L1350 311L1350 389L1350 389L1350 467L1350 467L1350 544L1350 544L1350 622L1350 622L1350 700L1350 700Z" fill="#01010a"></path></svg>